Coordinates
version=1
nRows=17
nColumns=36
inDegrees=yes

Units are S.I. units (second, meters, Newtons, ...)
If the header above contains a line with 'inDegrees', this indicates whether rotational values are in degrees (yes) or radians (no).

endheader
time	pelvis_tilt	pelvis_list	pelvis_rotation	pelvis_tx	pelvis_ty	pelvis_tz	hip_flexion_r	hip_adduction_r	hip_rotation_r	knee_angle_r	knee_angle_r_beta	ankle_angle_r	subtalar_angle_r	mtp_angle_r	hip_flexion_l	hip_adduction_l	hip_rotation_l	knee_angle_l	knee_angle_l_beta	ankle_angle_l	subtalar_angle_l	mtp_angle_l	lumbar_extension	lumbar_bending	lumbar_rotation	arm_flex_r	arm_add_r	arm_rot_r	elbow_flex_r	pro_sup_r	arm_flex_l	arm_add_l	arm_rot_l	elbow_flex_l	pro_sup_l
      2.38333330	    -18.35166292	      1.50694571	      0.42702885	      1.51034497	      0.71911089	      0.11906709	     72.36406944	     -2.42684073	      5.39119218	     89.05820943	      1.55435898	     38.17550813	     -5.75494306	     -7.49999987	     70.17785846	     -8.99419179	      0.93330296	     88.95801956	      1.55261034	     34.30225721	     -5.83294944	     -7.49999987	    -25.68496221	     -3.03989398	      5.91363151	     44.70143736	    -21.34581750	      6.08859802	     63.96279651	     85.10866809	     36.39216784	    -19.30730737	     12.22180740	     73.43633772	     96.42446132
      2.40000000	    -18.48777222	      1.75845015	      0.00866009	      1.52967286	      0.72245547	      0.09858853	     71.30076666	     -2.45852837	      5.89183552	     89.30173915	      1.55860938	     39.32340273	     -5.58580326	     -7.49999987	     69.35607615	     -8.34024470	      1.00252758	     89.79769172	      1.56726538	     34.66526125	     -6.22830254	     -7.49999987	    -22.78467349	     -2.71033515	      7.88580945	     53.40381005	    -24.13518217	     10.41633405	     65.85423449	     86.61241496	     42.82492307	    -19.18314206	     16.94497597	     80.81895559	     97.41585022
      2.41666670	    -19.04306316	      2.01988975	      0.23786581	      1.53442095	      0.71662342	      0.10125125	     71.25173005	     -2.95920282	      6.12103854	     89.80055899	      1.56731542	     40.15331789	     -5.83471236	     -7.49999987	     69.69729184	     -7.48289092	      1.07381525	     90.87886028	      1.58613533	     34.20446572	     -7.42233871	     -7.49999987	    -18.94556967	     -2.35980247	      8.68861904	     60.51549760	    -26.28756758	     14.34676646	     67.34267165	     87.56866870	     50.65617712	    -20.42781243	     20.63430001	     87.08610566	     97.70225904
      2.43333330	    -19.22878645	      2.01397809	      0.45999283	      1.53918223	      0.72096240	      0.10626997	     70.62050794	     -3.08732411	      5.83022274	     89.50289412	      1.56212019	     40.79163073	     -5.91889081	     -7.49999987	     69.72771196	     -7.09266473	      1.30275276	     91.43437611	      1.59583091	     32.90109382	     -8.70354110	     -7.49999987	    -14.98739024	     -1.90436198	      9.42443201	     66.08711581	    -28.00967132	     17.50462943	     68.10399054	     88.12691445	     56.40500332	    -23.00706329	     23.75211878	     92.55215272	     97.60170841
      2.45000000	    -18.89133066	      2.10541760	      0.66684194	      1.54454389	      0.72734374	      0.10248059	     69.45541476	     -3.63895979	      5.45978066	     88.85246851	      1.55076812	     40.69369151	     -6.34455459	     -7.49999987	     69.04214192	     -6.44190845	      1.47135400	     91.29472510	      1.59339354	     30.85045616	    -10.22962974	     -7.49999987	    -12.76818942	     -0.55847201	      6.37997281	     76.28560708	    -25.06544175	     24.74625150	     65.95608037	     88.74721228	     61.25825042	    -30.68246994	     22.89187720	     96.66730539	     92.85111770
      2.46666670	    -19.03395845	      2.24502149	      0.75884076	      1.54696960	      0.73561344	      0.10327456	     68.64237306	     -3.96831416	      5.19366146	     87.71851547	      1.53097691	     40.18870513	     -6.64531521	     -7.49999987	     68.57483660	     -5.79042190	      1.56133979	     90.52825664	      1.58001614	     27.84580442	    -12.36653246	     -7.49999987	    -10.75512884	     -0.23727100	      7.14819886	     85.43195433	    -23.64130315	     30.09026939	     66.52358993	     89.23498254	     68.81037282	    -35.89350222	     26.60021792	    100.99486526	     92.03143763
      2.48333330	    -18.26838737	      2.51126215	      0.85204603	      1.55714049	      0.75413928	      0.10393716	     66.07356428	     -4.53221614	      4.83858241	     85.41692592	      1.49080659	     39.12459806	     -6.93658138	     -7.49999987	     66.04292439	     -4.89410412	      1.56225932	     88.10012192	      1.53763720	     25.18615250	    -13.61148353	     -7.49999987	     -9.46455489	      0.29739933	      6.43435368	     92.80397811	    -24.84004077	     37.20527666	     67.54188042	     88.53980529	     73.78795432	    -41.21914931	     26.87162045	    105.29812335	     88.48850724
      2.50000000	    -17.42891118	      2.70215447	      0.64976225	      1.57654714	      0.76599867	      0.09443044	     62.70966141	     -5.06438874	      4.69839440	     82.78343474	      1.44484350	     37.91195998	     -7.15102293	     -7.49999987	     62.64895798	     -4.12816178	      1.44814331	     85.45768166	      1.49151792	     22.73099783	    -14.52953364	     -7.49999987	     -7.44174997	      1.73529907	      5.71347706	    101.25321129	    -23.90515367	     45.37042837	     66.70406105	     87.76166619	     74.02482290	    -49.00212365	     23.75377519	    110.84077803	     82.78117402
      2.51666670	    -16.83592981	      3.08685769	      0.58333543	      1.59436365	      0.78087496	      0.09579727	     59.25776946	     -5.76443275	      4.57657866	     79.95773614	      1.39552576	     36.61099019	     -7.70370168	     -7.49999987	     59.10063598	     -3.26341142	      1.28855341	     82.61227022	      1.44185612	     20.75119139	    -15.36786280	     -7.49999987	     -5.79486081	      1.93249785	      6.88496183	    108.86245573	    -24.11438375	     51.12932853	     65.75785686	     87.11165908	     79.32679083	    -54.19285992	     26.47290828	    113.71434637	     81.80302973
      2.53333330	    -16.47988189	      3.21550727	      0.82955213	      1.60075098	      0.81091853	      0.10032525	     55.10426693	     -6.35025810	      3.81947905	     74.90322918	      1.30730797	     34.68638880	     -8.17148102	     -7.49999987	     54.95969164	     -2.62623267	      1.26432692	     77.73415008	      1.35671686	     17.98946790	    -16.12027029	     -7.49999987	     -4.39819662	      2.38639032	      3.15287401	    114.67320272	    -20.22389173	     56.28534264	     63.95253940	     82.53423049	     84.82866409	    -67.25310591	     31.13172165	    118.86398353	     76.02396804
      2.55000000	    -16.44819429	      3.32073184	      0.86486571	      1.61557189	      0.83951941	      0.10574683	     50.75356217	     -6.72685984	      2.80629905	     68.58399943	      1.19701660	     32.29050860	     -8.16468466	     -7.49999987	     50.55614662	     -2.50985139	      1.07378721	     71.44420979	      1.24693669	     14.36670680	    -17.13518103	     -7.49999987	     -3.57899707	      3.43711124	     -3.05007843	    119.76474382	    -13.19822892	     59.71849183	     62.49629757	     79.35078258	     92.04995669	    -86.02112912	     37.72673947	    127.99245211	     71.17884109
      2.56666670	    -16.56084761	      3.47621081	      0.83563439	      1.62645961	      0.86299749	      0.10620963	     46.91697170	     -7.14259401	      1.55377125	     62.33070262	      1.08787599	     29.45368622	     -7.70683456	     -7.49999987	     46.87856872	     -2.63631627	      0.40038322	     65.31723689	      1.14000084	     10.94578222	    -17.53481242	     -7.49999987	     -3.26000082	      2.37531532	     -9.21595806	    123.61149945	    -11.41284982	     62.77829797	     64.88096798	     73.31679262	     66.47681799	   -107.92791980	     13.61523132	    134.15058623	     55.10093014
      2.58333330	    -16.26952463	      3.48743001	      0.77281714	      1.64203127	      0.90187234	      0.10439053	     41.93913921	     -7.52736725	     -0.01894321	     54.60262779	      0.95299564	     24.98732999	     -7.42363220	     -7.49999987	     41.65139007	     -2.80336935	     -0.58254485	     56.93217424	      0.99365389	      7.14810369	    -17.29941299	     -7.49999987	     -1.91052725	      1.21726240	    -10.60217708	    125.24505804	    -15.33120113	     67.51172135	     71.70481681	     72.75860662	     63.31409645	   -116.59463593	     15.14245735	    137.42146371	     54.88472808
      2.60000000	    -15.57369874	      3.61335328	      0.67789400	      1.66144617	      0.94312141	      0.10045687	     35.87536503	     -8.13160707	     -2.10617562	     45.66890902	      0.79707283	     18.88961929	     -6.75784302	     -7.49999987	     35.22891008	     -2.81877829	     -2.09590725	     46.93591452	      0.81918625	      2.72965029	    -16.30321343	     -7.49999987	     -0.10864906	      0.26088540	    -10.56979578	    124.19309033	    -21.26251065	     71.48899760	     80.21265623	     72.66871339	     60.54134216	   -120.39639521	     22.77063648	    141.33417030	     54.86675800
      2.61666670	    -14.75987339	      3.12473073	      0.68748288	      1.67482271	      0.98826514	      0.10499016	     29.54156364	     -7.82057166	     -4.87622693	     35.74414302	      0.62385298	     11.22955849	     -5.69019748	     -7.49999987	     28.74836633	     -3.44801175	     -3.99706302	     36.07501268	      0.62962775	     -2.64950262	    -14.06694219	     -7.49999987	      0.95784158	      0.46209850	    -10.51671637	    123.45510196	    -28.04705824	     77.11475149	     91.69958269	     67.99529181	     66.44304442	   -122.26097662	     42.74485391	    146.18563383	     54.33793708
      2.63333330	    -13.67942054	      2.34372017	      0.53131616	      1.69164303	      1.03165861	      0.11301983	     23.37247772	     -6.65349301	     -7.43027723	     26.03833278	      0.45445464	      2.83766952	     -3.71641209	     -7.49999987	     22.50118660	     -4.75137201	     -6.93893444	     24.51238112	      0.42782176	     -5.90575072	     -9.53039876	     -7.49999987	      1.72923163	      0.78863673	    -10.34093310	    119.44969757	    -34.81874365	     79.42429750	    103.38120885	     66.33309219	     73.15184819	   -124.55676027	     68.23843937	    148.26542982	     57.85994834
      2.65000000	    -12.61889446	      1.48715615	     -0.14381097	      1.70376828	      1.06588009	      0.11736694	     18.58101909	     -5.09977075	     -9.09106759	     18.29558615	      0.31931822	     -5.50143526	     -1.62777616	     -7.49999987	     16.59220477	     -6.16412864	    -10.19600354	     14.76434202	      0.25768638	     -8.99700272	     -2.86544992	     -7.49999987	      2.02680543	      0.94117608	    -11.42145147	    111.51494853	    -39.39930625	     78.44299075	    111.47393680	     63.54392590	     80.14428908	   -129.13167952	     95.30394048	    147.79778914	     63.14373958
